<svg width="302" height="14" viewBox="0 0 302 14" fill="none" xmlns="http://www.w3.org/2000/svg">
<path d="M12.734 0.579999V13H11.474V3.082L7.046 13H6.128L1.7 3.118V13H0.44V0.579999H1.772L6.578 11.344L11.384 0.579999H12.734ZM21.2443 13.126C20.0803 13.126 19.0243 12.856 18.0763 12.316C17.1283 11.764 16.3783 11.002 15.8263 10.03C15.2863 9.046 15.0163 7.936 15.0163 6.7C15.0163 5.464 15.2863 4.36 15.8263 3.388C16.3783 2.404 17.1283 1.642 18.0763 1.102C19.0243 0.55 20.0803 0.274 21.2443 0.274C22.4203 0.274 23.4823 0.55 24.4303 1.102C25.3783 1.642 26.1223 2.404 26.6623 3.388C27.2023 4.36 27.4723 5.464 27.4723 6.7C27.4723 7.936 27.2023 9.046 26.6623 10.03C26.1223 11.002 25.3783 11.764 24.4303 12.316C23.4823 12.856 22.4203 13.126 21.2443 13.126ZM21.2443 12.028C22.1803 12.028 23.0203 11.812 23.7643 11.38C24.5083 10.948 25.0963 10.33 25.5283 9.526C25.9603 8.71 26.1763 7.768 26.1763 6.7C26.1763 5.632 25.9603 4.696 25.5283 3.892C25.0963 3.088 24.5083 2.47 23.7643 2.038C23.0203 1.606 22.1803 1.39 21.2443 1.39C20.3083 1.39 19.4683 1.606 18.7243 2.038C17.9803 2.47 17.3923 3.088 16.9603 3.892C16.5283 4.696 16.3123 5.632 16.3123 6.7C16.3123 7.768 16.5283 8.71 16.9603 9.526C17.3923 10.33 17.9803 10.948 18.7243 11.38C19.4683 11.812 20.3083 12.028 21.2443 12.028ZM33.5939 13.126C32.7659 13.126 32.0339 12.982 31.3979 12.694C30.7739 12.406 30.2819 12.004 29.9219 11.488C29.5619 10.972 29.3699 10.396 29.3459 9.76H30.6779C30.7379 10.372 31.0079 10.912 31.4879 11.38C31.9679 11.836 32.6699 12.064 33.5939 12.064C34.4459 12.064 35.1179 11.848 35.6099 11.416C36.1139 10.972 36.3659 10.414 36.3659 9.742C36.3659 9.202 36.2279 8.77 35.9519 8.446C35.6759 8.11 35.3339 7.864 34.9259 7.708C34.5179 7.54 33.9539 7.36 33.2339 7.168C32.3939 6.94 31.7279 6.718 31.2359 6.502C30.7439 6.286 30.3239 5.95 29.9759 5.494C29.6279 5.038 29.4539 4.42 29.4539 3.64C29.4539 2.992 29.6219 2.416 29.9579 1.912C30.2939 1.396 30.7679 0.993999 31.3799 0.705999C31.9919 0.418 32.6939 0.274 33.4859 0.274C34.6499 0.274 35.5859 0.562 36.2939 1.138C37.0139 1.702 37.4279 2.434 37.5359 3.334H36.1679C36.0839 2.818 35.8019 2.362 35.3219 1.966C34.8419 1.558 34.1939 1.354 33.3779 1.354C32.6219 1.354 31.9919 1.558 31.4879 1.966C30.9839 2.362 30.7319 2.908 30.7319 3.604C30.7319 4.132 30.8699 4.558 31.1459 4.882C31.4219 5.206 31.7639 5.452 32.1719 5.62C32.5919 5.788 33.1559 5.968 33.8639 6.16C34.6799 6.388 35.3399 6.616 35.8439 6.844C36.3479 7.06 36.7739 7.396 37.1219 7.852C37.4699 8.308 37.6439 8.92 37.6439 9.688C37.6439 10.276 37.4879 10.834 37.1759 11.362C36.8639 11.89 36.4019 12.316 35.7899 12.64C35.1779 12.964 34.4459 13.126 33.5939 13.126ZM41.2847 0.417999V8.338C41.2847 9.586 41.5787 10.51 42.1667 11.11C42.7667 11.71 43.5827 12.01 44.6147 12.01C45.6467 12.01 46.4507 11.716 47.0267 11.128C47.6147 10.528 47.9087 9.598 47.9087 8.338V0.417999H49.1687V8.32C49.1687 9.916 48.7427 11.116 47.8907 11.92C47.0507 12.724 45.9527 13.126 44.5967 13.126C43.2407 13.126 42.1367 12.724 41.2847 11.92C40.4447 11.116 40.0247 9.916 40.0247 8.32V0.417999H41.2847ZM61.4651 13H60.2051L53.2391 2.416V13H51.9791V0.417999H53.2391L60.2051 10.984V0.417999H61.4651V13ZM78.6004 0.417999V13H77.3404V7.114H70.5184V13H69.2584V0.417999H70.5184V6.07H77.3404V0.417999H78.6004ZM87.1272 13.126C85.9632 13.126 84.9072 12.856 83.9592 12.316C83.0112 11.764 82.2612 11.002 81.7092 10.03C81.1692 9.046 80.8992 7.936 80.8992 6.7C80.8992 5.464 81.1692 4.36 81.7092 3.388C82.2612 2.404 83.0112 1.642 83.9592 1.102C84.9072 0.55 85.9632 0.274 87.1272 0.274C88.3032 0.274 89.3652 0.55 90.3132 1.102C91.2612 1.642 92.0052 2.404 92.5452 3.388C93.0852 4.36 93.3552 5.464 93.3552 6.7C93.3552 7.936 93.0852 9.046 92.5452 10.03C92.0052 11.002 91.2612 11.764 90.3132 12.316C89.3652 12.856 88.3032 13.126 87.1272 13.126ZM87.1272 12.028C88.0632 12.028 88.9032 11.812 89.6472 11.38C90.3912 10.948 90.9792 10.33 91.4112 9.526C91.8432 8.71 92.0592 7.768 92.0592 6.7C92.0592 5.632 91.8432 4.696 91.4112 3.892C90.9792 3.088 90.3912 2.47 89.6472 2.038C88.9032 1.606 88.0632 1.39 87.1272 1.39C86.1912 1.39 85.3512 1.606 84.6072 2.038C83.8632 2.47 83.2752 3.088 82.8432 3.892C82.4112 4.696 82.1952 5.632 82.1952 6.7C82.1952 7.768 82.4112 8.71 82.8432 9.526C83.2752 10.33 83.8632 10.948 84.6072 11.38C85.3512 11.812 86.1912 12.028 87.1272 12.028ZM107.955 0.579999V13H106.695V3.082L102.267 13H101.349L96.9207 3.118V13H95.6607V0.579999H96.9927L101.799 11.344L106.605 0.579999H107.955ZM112.073 1.444V6.142H116.843V7.186H112.073V11.956H117.383V13H110.813V0.399999H117.383V1.444H112.073ZM123.682 13.126C122.854 13.126 122.122 12.982 121.486 12.694C120.862 12.406 120.37 12.004 120.01 11.488C119.65 10.972 119.458 10.396 119.434 9.76H120.766C120.826 10.372 121.096 10.912 121.576 11.38C122.056 11.836 122.758 12.064 123.682 12.064C124.534 12.064 125.206 11.848 125.698 11.416C126.202 10.972 126.454 10.414 126.454 9.742C126.454 9.202 126.316 8.77 126.04 8.446C125.764 8.11 125.422 7.864 125.014 7.708C124.606 7.54 124.042 7.36 123.322 7.168C122.482 6.94 121.816 6.718 121.324 6.502C120.832 6.286 120.412 5.95 120.064 5.494C119.716 5.038 119.542 4.42 119.542 3.64C119.542 2.992 119.71 2.416 120.046 1.912C120.382 1.396 120.856 0.993999 121.468 0.705999C122.08 0.418 122.782 0.274 123.574 0.274C124.738 0.274 125.674 0.562 126.382 1.138C127.102 1.702 127.516 2.434 127.624 3.334H126.256C126.172 2.818 125.89 2.362 125.41 1.966C124.93 1.558 124.282 1.354 123.466 1.354C122.71 1.354 122.08 1.558 121.576 1.966C121.072 2.362 120.82 2.908 120.82 3.604C120.82 4.132 120.958 4.558 121.234 4.882C121.51 5.206 121.852 5.452 122.26 5.62C122.68 5.788 123.244 5.968 123.952 6.16C124.768 6.388 125.428 6.616 125.932 6.844C126.436 7.06 126.862 7.396 127.21 7.852C127.558 8.308 127.732 8.92 127.732 9.688C127.732 10.276 127.576 10.834 127.264 11.362C126.952 11.89 126.49 12.316 125.878 12.64C125.266 12.964 124.534 13.126 123.682 13.126ZM144.682 13L142.972 11.254C142.36 11.926 141.706 12.424 141.01 12.748C140.314 13.06 139.528 13.216 138.652 13.216C137.812 13.216 137.068 13.06 136.42 12.748C135.772 12.424 135.268 11.974 134.908 11.398C134.548 10.822 134.368 10.156 134.368 9.4C134.368 8.512 134.62 7.738 135.124 7.078C135.628 6.418 136.366 5.902 137.338 5.53C136.918 5.062 136.612 4.63 136.42 4.234C136.228 3.826 136.132 3.388 136.132 2.92C136.132 2.116 136.42 1.468 136.996 0.975999C137.572 0.471999 138.34 0.219999 139.3 0.219999C140.2 0.219999 140.932 0.477999 141.496 0.993999C142.06 1.51 142.324 2.182 142.288 3.01H141.028C141.04 2.47 140.872 2.044 140.524 1.732C140.188 1.42 139.762 1.264 139.246 1.264C138.694 1.264 138.244 1.42 137.896 1.732C137.56 2.032 137.392 2.422 137.392 2.902C137.392 3.286 137.494 3.658 137.698 4.018C137.914 4.378 138.25 4.804 138.706 5.296L142.846 9.49C143.014 9.262 143.242 8.902 143.53 8.41L144.682 6.484H146.032L144.664 8.842C144.34 9.406 144.016 9.91 143.692 10.354L146.32 13H144.682ZM138.652 12.118C139.36 12.118 139.99 11.98 140.542 11.704C141.106 11.428 141.64 10.996 142.144 10.408L138.13 6.34C136.462 6.952 135.628 7.96 135.628 9.364C135.628 9.892 135.754 10.366 136.006 10.786C136.27 11.194 136.63 11.518 137.086 11.758C137.542 11.998 138.064 12.118 138.652 12.118ZM159.679 13L156.565 7.744H154.243V13H152.983V0.417999H156.763C158.167 0.417999 159.229 0.753999 159.949 1.426C160.681 2.098 161.047 2.98 161.047 4.072C161.047 4.984 160.783 5.764 160.255 6.412C159.739 7.048 158.971 7.462 157.951 7.654L161.191 13H159.679ZM154.243 6.718H156.781C157.765 6.718 158.503 6.478 158.995 5.998C159.499 5.518 159.751 4.876 159.751 4.072C159.751 3.244 159.511 2.608 159.031 2.164C158.551 1.708 157.795 1.48 156.763 1.48H154.243V6.718ZM164.807 1.444V6.142H169.577V7.186H164.807V11.956H170.117V13H163.547V0.399999H170.117V1.444H164.807ZM179.89 10.012H174.166L173.068 13H171.736L176.326 0.579999H177.748L182.32 13H180.988L179.89 10.012ZM179.512 8.968L177.028 2.164L174.544 8.968H179.512ZM185.602 11.974H190.12V13H184.342V0.417999H185.602V11.974ZM199.281 0.417999V1.462H195.789V13H194.529V1.462H191.019V0.417999H199.281ZM206.922 13.126C205.758 13.126 204.702 12.856 203.754 12.316C202.806 11.764 202.056 11.002 201.504 10.03C200.964 9.046 200.694 7.936 200.694 6.7C200.694 5.464 200.964 4.36 201.504 3.388C202.056 2.404 202.806 1.642 203.754 1.102C204.702 0.55 205.758 0.274 206.922 0.274C208.098 0.274 209.16 0.55 210.108 1.102C211.056 1.642 211.8 2.404 212.34 3.388C212.88 4.36 213.15 5.464 213.15 6.7C213.15 7.936 212.88 9.046 212.34 10.03C211.8 11.002 211.056 11.764 210.108 12.316C209.16 12.856 208.098 13.126 206.922 13.126ZM206.922 12.028C207.858 12.028 208.698 11.812 209.442 11.38C210.186 10.948 210.774 10.33 211.206 9.526C211.638 8.71 211.854 7.768 211.854 6.7C211.854 5.632 211.638 4.696 211.206 3.892C210.774 3.088 210.186 2.47 209.442 2.038C208.698 1.606 207.858 1.39 206.922 1.39C205.986 1.39 205.146 1.606 204.402 2.038C203.658 2.47 203.07 3.088 202.638 3.892C202.206 4.696 201.99 5.632 201.99 6.7C201.99 7.768 202.206 8.71 202.638 9.526C203.07 10.33 203.658 10.948 204.402 11.38C205.146 11.812 205.986 12.028 206.922 12.028ZM222.152 13L219.038 7.744H216.716V13H215.456V0.417999H219.236C220.64 0.417999 221.702 0.753999 222.422 1.426C223.154 2.098 223.52 2.98 223.52 4.072C223.52 4.984 223.256 5.764 222.728 6.412C222.212 7.048 221.444 7.462 220.424 7.654L223.664 13H222.152ZM216.716 6.718H219.254C220.238 6.718 220.976 6.478 221.468 5.998C221.972 5.518 222.224 4.876 222.224 4.072C222.224 3.244 221.984 2.608 221.504 2.164C221.024 1.708 220.268 1.48 219.236 1.48H216.716V6.718ZM229.836 13.126C229.008 13.126 228.276 12.982 227.64 12.694C227.016 12.406 226.524 12.004 226.164 11.488C225.804 10.972 225.612 10.396 225.588 9.76H226.92C226.98 10.372 227.25 10.912 227.73 11.38C228.21 11.836 228.912 12.064 229.836 12.064C230.688 12.064 231.36 11.848 231.852 11.416C232.356 10.972 232.608 10.414 232.608 9.742C232.608 9.202 232.47 8.77 232.194 8.446C231.918 8.11 231.576 7.864 231.168 7.708C230.76 7.54 230.196 7.36 229.476 7.168C228.636 6.94 227.97 6.718 227.478 6.502C226.986 6.286 226.566 5.95 226.218 5.494C225.87 5.038 225.696 4.42 225.696 3.64C225.696 2.992 225.864 2.416 226.2 1.912C226.536 1.396 227.01 0.993999 227.622 0.705999C228.234 0.418 228.936 0.274 229.728 0.274C230.892 0.274 231.828 0.562 232.536 1.138C233.256 1.702 233.67 2.434 233.778 3.334H232.41C232.326 2.818 232.044 2.362 231.564 1.966C231.084 1.558 230.436 1.354 229.62 1.354C228.864 1.354 228.234 1.558 227.73 1.966C227.226 2.362 226.974 2.908 226.974 3.604C226.974 4.132 227.112 4.558 227.388 4.882C227.664 5.206 228.006 5.452 228.414 5.62C228.834 5.788 229.398 5.968 230.106 6.16C230.922 6.388 231.582 6.616 232.086 6.844C232.59 7.06 233.016 7.396 233.364 7.852C233.712 8.308 233.886 8.92 233.886 9.688C233.886 10.276 233.73 10.834 233.418 11.362C233.106 11.89 232.644 12.316 232.032 12.64C231.42 12.964 230.688 13.126 229.836 13.126ZM242.52 11.974H247.038V13H241.26V0.417999H242.52V11.974ZM250.096 0.417999V13H248.836V0.417999H250.096ZM265.244 0.579999V13H263.984V3.082L259.556 13H258.638L254.21 3.118V13H252.95V0.579999H254.282L259.088 11.344L263.894 0.579999H265.244ZM269.362 0.417999V13H268.102V0.417999H269.362ZM279.577 0.417999V1.462H276.085V13H274.825V1.462H271.315V0.417999H279.577ZM282.827 1.444V6.142H287.597V7.186H282.827V11.956H288.137V13H281.567V0.399999H288.137V1.444H282.827ZM294.346 0.417999C295.738 0.417999 296.932 0.669999 297.928 1.174C298.924 1.678 299.686 2.404 300.214 3.352C300.742 4.3 301.006 5.428 301.006 6.736C301.006 8.032 300.742 9.154 300.214 10.102C299.686 11.038 298.924 11.758 297.928 12.262C296.932 12.754 295.738 13 294.346 13H290.62V0.417999H294.346ZM294.346 11.956C296.098 11.956 297.43 11.5 298.342 10.588C299.266 9.664 299.728 8.38 299.728 6.736C299.728 5.08 299.266 3.79 298.342 2.866C297.43 1.93 296.098 1.462 294.346 1.462H291.88V11.956H294.346Z" fill="black"/>
</svg>
