<svg width="381" height="122" viewBox="0 0 381 122" fill="none" xmlns="http://www.w3.org/2000/svg">
<path d="M93.696 38.032L81.696 106H60.48L66.432 72.208L50.016 106H31.776L27.264 71.92L21.312 106H0L12 38.032H38.112L45.888 78.928L67.68 38.032H93.696ZM166.193 38.032L154.193 106H132.881L137.585 79.504H117.329L112.625 106H91.3125L103.312 38.032H124.625L120.305 62.512H140.561L144.881 38.032H166.193ZM207.461 38.032C214.757 38.032 220.293 39.664 224.069 42.928C227.845 46.192 229.733 50.544 229.733 55.984C229.733 57.584 229.605 59.024 229.349 60.304C228.517 64.912 226.533 68.976 223.397 72.496C220.261 75.952 216.197 78.448 211.205 79.984L221.381 106H197.957L189.413 81.616L185.093 106H163.781L175.781 38.032H207.461ZM191.909 67.408H200.357C202.405 67.408 204.005 66.96 205.157 66.064C206.373 65.104 207.173 63.632 207.557 61.648C207.621 61.328 207.653 60.912 207.653 60.4C207.653 58.992 207.205 57.904 206.309 57.136C205.413 56.304 204.101 55.888 202.373 55.888H193.925L191.909 67.408Z" fill="black"/>
<line x1="256" y1="26" x2="256" y2="111" stroke="black" stroke-width="6"/>
<path d="M298.52 30.84L296.02 45H291.6L292.84 37.96L289.42 45H285.62L284.68 37.9L283.44 45H279L281.5 30.84H286.94L288.56 39.36L293.1 30.84H298.52ZM303.363 45.14C302.363 45.14 301.483 44.9467 300.723 44.56C299.963 44.1733 299.37 43.6267 298.943 42.92C298.517 42.2 298.303 41.3667 298.303 40.42C298.303 39.1133 298.61 37.94 299.223 36.9C299.85 35.86 300.703 35.0467 301.783 34.46C302.863 33.8733 304.07 33.58 305.403 33.58C306.403 33.58 307.283 33.78 308.043 34.18C308.803 34.5667 309.397 35.12 309.823 35.84C310.25 36.5467 310.463 37.3733 310.463 38.32C310.463 39.6267 310.157 40.8 309.543 41.84C308.93 42.88 308.083 43.6933 307.003 44.28C305.923 44.8533 304.71 45.14 303.363 45.14ZM304.043 41.3C304.617 41.3 305.07 41.04 305.403 40.52C305.737 40 305.903 39.42 305.903 38.78C305.903 38.3267 305.79 37.9867 305.563 37.76C305.35 37.5333 305.07 37.42 304.723 37.42C304.15 37.42 303.697 37.68 303.363 38.2C303.03 38.72 302.863 39.3 302.863 39.94C302.863 40.3933 302.97 40.7333 303.183 40.96C303.397 41.1867 303.683 41.3 304.043 41.3ZM315.898 45.14C314.912 45.14 314.032 44.9933 313.258 44.7C312.498 44.4067 311.898 44 311.458 43.48C311.032 42.9467 310.818 42.34 310.818 41.66C310.818 41.4067 310.832 41.22 310.858 41.1H315.118C315.105 41.4333 315.198 41.68 315.398 41.84C315.612 42 315.898 42.08 316.258 42.08C316.485 42.08 316.678 42.0267 316.838 41.92C317.012 41.8133 317.098 41.6867 317.098 41.54C317.098 41.3267 316.965 41.16 316.698 41.04C316.432 40.9067 315.992 40.76 315.378 40.6C314.605 40.3867 313.958 40.1667 313.438 39.94C312.932 39.7133 312.485 39.38 312.098 38.94C311.725 38.4867 311.538 37.9 311.538 37.18C311.538 36.5133 311.738 35.9067 312.138 35.36C312.552 34.8 313.125 34.3667 313.858 34.06C314.605 33.74 315.465 33.58 316.438 33.58C317.505 33.58 318.418 33.76 319.178 34.12C319.952 34.48 320.532 34.9667 320.918 35.58C321.305 36.1933 321.485 36.8733 321.458 37.62H317.518C317.518 37.3133 317.425 37.08 317.238 36.92C317.052 36.7467 316.778 36.66 316.418 36.66C316.192 36.66 315.998 36.7067 315.838 36.8C315.692 36.8933 315.618 37.02 315.618 37.18C315.618 37.38 315.752 37.5467 316.018 37.68C316.285 37.8 316.738 37.96 317.378 38.16C318.165 38.3867 318.812 38.6133 319.318 38.84C319.838 39.0533 320.292 39.38 320.678 39.82C321.065 40.2467 321.258 40.7933 321.258 41.46C321.258 42.62 320.758 43.5267 319.758 44.18C318.772 44.82 317.485 45.14 315.898 45.14ZM336.26 33.72L334.26 45H329.82L330.12 43.3C329.68 43.8333 329.14 44.2667 328.5 44.6C327.86 44.92 327.147 45.08 326.36 45.08C325.267 45.08 324.427 44.7667 323.84 44.14C323.254 43.5 322.96 42.6267 322.96 41.52C322.96 41.12 323 40.7 323.08 40.26L324.24 33.72H328.66L327.6 39.7C327.574 39.9133 327.56 40.06 327.56 40.14C327.56 40.5533 327.674 40.8733 327.9 41.1C328.14 41.3267 328.467 41.44 328.88 41.44C329.36 41.44 329.767 41.2867 330.1 40.98C330.434 40.6733 330.654 40.2533 330.76 39.72L331.82 33.72H336.26ZM346.166 33.64C347.259 33.64 348.099 33.96 348.686 34.6C349.272 35.2267 349.566 36.0933 349.566 37.2C349.566 37.6 349.526 38.02 349.446 38.46L348.286 45H343.866L344.926 39.02C344.952 38.8067 344.966 38.66 344.966 38.58C344.966 38.1667 344.846 37.8467 344.606 37.62C344.379 37.3933 344.059 37.28 343.646 37.28C343.166 37.28 342.759 37.4333 342.426 37.74C342.092 38.0467 341.872 38.4667 341.766 39L340.706 45H336.266L338.266 33.72H342.706L342.406 35.42C342.846 34.8867 343.386 34.46 344.026 34.14C344.666 33.8067 345.379 33.64 346.166 33.64ZM294.6 60.84L292.1 75H287.66L288.64 69.48H284.42L283.44 75H279L281.5 60.84H285.94L285.04 65.94H289.26L290.16 60.84H294.6ZM299.438 75.14C298.438 75.14 297.558 74.9467 296.798 74.56C296.038 74.1733 295.444 73.6267 295.018 72.92C294.591 72.2 294.378 71.3667 294.378 70.42C294.378 69.1133 294.684 67.94 295.298 66.9C295.924 65.86 296.778 65.0467 297.858 64.46C298.938 63.8733 300.144 63.58 301.478 63.58C302.478 63.58 303.358 63.78 304.118 64.18C304.878 64.5667 305.471 65.12 305.898 65.84C306.324 66.5467 306.538 67.3733 306.538 68.32C306.538 69.6267 306.231 70.8 305.618 71.84C305.004 72.88 304.158 73.6933 303.078 74.28C301.998 74.8533 300.784 75.14 299.438 75.14ZM300.118 71.3C300.691 71.3 301.144 71.04 301.478 70.52C301.811 70 301.978 69.42 301.978 68.78C301.978 68.3267 301.864 67.9867 301.638 67.76C301.424 67.5333 301.144 67.42 300.798 67.42C300.224 67.42 299.771 67.68 299.438 68.2C299.104 68.72 298.938 69.3 298.938 69.94C298.938 70.3933 299.044 70.7333 299.258 70.96C299.471 71.1867 299.758 71.3 300.118 71.3ZM323.873 63.64C325.099 63.64 326.039 63.96 326.693 64.6C327.359 65.24 327.693 66.1267 327.693 67.26C327.693 67.6333 327.653 68.0333 327.573 68.46L326.413 75H321.993L323.053 69.02C323.066 68.94 323.073 68.8267 323.073 68.68C323.073 68.2933 322.953 68 322.713 67.8C322.486 67.5867 322.166 67.48 321.753 67.48C321.273 67.48 320.866 67.6133 320.533 67.88C320.213 68.1333 320.006 68.4867 319.913 68.94L318.833 75H314.413L315.473 69.02C315.486 68.94 315.493 68.8267 315.493 68.68C315.493 68.2933 315.373 68 315.133 67.8C314.906 67.5867 314.586 67.48 314.173 67.48C313.693 67.48 313.286 67.6133 312.953 67.88C312.633 68.1467 312.426 68.5067 312.333 68.96L311.253 75H306.812L308.813 63.72H313.253L312.973 65.24C313.386 64.76 313.893 64.3733 314.493 64.08C315.093 63.7867 315.766 63.64 316.513 63.64C317.326 63.64 318.013 63.82 318.572 64.18C319.146 64.5267 319.559 65.0267 319.813 65.68C320.333 65.08 320.939 64.5933 321.633 64.22C322.339 63.8333 323.086 63.64 323.873 63.64ZM335.516 63.58C337.009 63.58 338.196 63.98 339.076 64.78C339.956 65.5667 340.396 66.6467 340.396 68.02C340.396 68.4067 340.356 68.82 340.276 69.26C340.183 69.7 340.109 69.9933 340.056 70.14H332.936C332.923 70.22 332.916 70.3333 332.916 70.48C332.916 71.2267 333.236 71.6 333.876 71.6C334.369 71.6 334.756 71.38 335.036 70.94H339.736C339.443 71.74 338.983 72.46 338.356 73.1C337.729 73.7267 336.989 74.2267 336.136 74.6C335.296 74.96 334.409 75.14 333.476 75.14C331.983 75.14 330.796 74.7467 329.916 73.96C329.049 73.16 328.616 72.0533 328.616 70.64C328.616 70.2267 328.656 69.8 328.736 69.36C328.949 68.1867 329.376 67.1667 330.016 66.3C330.656 65.42 331.449 64.7467 332.396 64.28C333.356 63.8133 334.396 63.58 335.516 63.58ZM335.936 68.32C335.949 68.2533 335.956 68.1533 335.956 68.02C335.956 67.7 335.856 67.46 335.656 67.3C335.456 67.14 335.203 67.06 334.896 67.06C334.096 67.06 333.556 67.48 333.276 68.32H335.936ZM345.82 75.14C344.833 75.14 343.953 74.9933 343.18 74.7C342.42 74.4067 341.82 74 341.38 73.48C340.953 72.9467 340.74 72.34 340.74 71.66C340.74 71.4067 340.753 71.22 340.78 71.1H345.04C345.027 71.4333 345.12 71.68 345.32 71.84C345.533 72 345.82 72.08 346.18 72.08C346.407 72.08 346.6 72.0267 346.76 71.92C346.933 71.8133 347.02 71.6867 347.02 71.54C347.02 71.3267 346.887 71.16 346.62 71.04C346.353 70.9067 345.913 70.76 345.3 70.6C344.527 70.3867 343.88 70.1667 343.36 69.94C342.853 69.7133 342.407 69.38 342.02 68.94C341.647 68.4867 341.46 67.9 341.46 67.18C341.46 66.5133 341.66 65.9067 342.06 65.36C342.473 64.8 343.047 64.3667 343.78 64.06C344.527 63.74 345.387 63.58 346.36 63.58C347.427 63.58 348.34 63.76 349.1 64.12C349.873 64.48 350.453 64.9667 350.84 65.58C351.227 66.1933 351.407 66.8733 351.38 67.62H347.44C347.44 67.3133 347.347 67.08 347.16 66.92C346.973 66.7467 346.7 66.66 346.34 66.66C346.113 66.66 345.92 66.7067 345.76 66.8C345.613 66.8933 345.54 67.02 345.54 67.18C345.54 67.38 345.673 67.5467 345.94 67.68C346.207 67.8 346.66 67.96 347.3 68.16C348.087 68.3867 348.733 68.6133 349.24 68.84C349.76 69.0533 350.213 69.38 350.6 69.82C350.987 70.2467 351.18 70.7933 351.18 71.46C351.18 72.62 350.68 73.5267 349.68 74.18C348.693 74.82 347.407 75.14 345.82 75.14ZM370.961 68.2C370.161 69.6133 369.321 70.8 368.441 71.76L371.221 75H366.341L365.521 74.08C364.134 74.8267 362.594 75.2 360.901 75.2C359.861 75.2 358.954 75.0533 358.181 74.76C357.407 74.4533 356.814 74.0267 356.401 73.48C355.987 72.9333 355.781 72.2933 355.781 71.56C355.781 70.5733 356.094 69.6867 356.721 68.9C357.361 68.1133 358.214 67.4667 359.281 66.96C358.894 66.3467 358.701 65.74 358.701 65.14C358.701 64.2733 358.941 63.5133 359.421 62.86C359.901 62.1933 360.554 61.68 361.381 61.32C362.221 60.96 363.161 60.78 364.201 60.78C365.574 60.78 366.627 61.0733 367.361 61.66C368.094 62.2467 368.461 62.9933 368.461 63.9C368.461 64.0867 368.441 64.2933 368.401 64.52H364.361C364.374 64.48 364.381 64.42 364.381 64.34C364.381 64.1533 364.314 64.0133 364.181 63.92C364.047 63.8133 363.894 63.76 363.721 63.76C363.481 63.76 363.274 63.8333 363.101 63.98C362.927 64.1267 362.841 64.34 362.841 64.62C362.841 65.0467 363.047 65.4933 363.461 65.96L366.141 69.08C366.407 68.68 366.647 68.2733 366.861 67.86L366.941 67.68H371.241L370.961 68.2ZM361.881 71.7C362.307 71.7 362.754 71.6333 363.221 71.5L361.241 69.28C360.961 69.48 360.741 69.7067 360.581 69.96C360.421 70.2 360.341 70.4333 360.341 70.66C360.341 70.9533 360.474 71.2 360.741 71.4C361.007 71.6 361.387 71.7 361.881 71.7ZM288.1 90.84C289.62 90.84 290.773 91.18 291.56 91.86C292.347 92.54 292.74 93.4467 292.74 94.58C292.74 94.9133 292.713 95.2133 292.66 95.48C292.487 96.44 292.073 97.2867 291.42 98.02C290.767 98.74 289.92 99.26 288.88 99.58L291 105H286.12L284.34 99.92L283.44 105H279L281.5 90.84H288.1ZM284.86 96.96H286.62C287.047 96.96 287.38 96.8667 287.62 96.68C287.873 96.48 288.04 96.1733 288.12 95.76C288.133 95.6933 288.14 95.6067 288.14 95.5C288.14 95.2067 288.047 94.98 287.86 94.82C287.673 94.6467 287.4 94.56 287.04 94.56H285.28L284.86 96.96ZM299.578 93.58C301.072 93.58 302.258 93.98 303.138 94.78C304.018 95.5667 304.458 96.6467 304.458 98.02C304.458 98.4067 304.418 98.82 304.338 99.26C304.245 99.7 304.172 99.9933 304.118 100.14H296.998C296.985 100.22 296.978 100.333 296.978 100.48C296.978 101.227 297.298 101.6 297.938 101.6C298.432 101.6 298.818 101.38 299.098 100.94H303.798C303.505 101.74 303.045 102.46 302.418 103.1C301.792 103.727 301.052 104.227 300.198 104.6C299.358 104.96 298.472 105.14 297.538 105.14C296.045 105.14 294.858 104.747 293.978 103.96C293.112 103.16 292.678 102.053 292.678 100.64C292.678 100.227 292.718 99.8 292.798 99.36C293.012 98.1867 293.438 97.1667 294.078 96.3C294.718 95.42 295.512 94.7467 296.458 94.28C297.418 93.8133 298.458 93.58 299.578 93.58ZM299.998 98.32C300.012 98.2533 300.018 98.1533 300.018 98.02C300.018 97.7 299.918 97.46 299.718 97.3C299.518 97.14 299.265 97.06 298.958 97.06C298.158 97.06 297.618 97.48 297.338 98.32H299.998ZM305.123 99.36C305.336 98.1733 305.723 97.1467 306.283 96.28C306.843 95.4 307.516 94.7333 308.303 94.28C309.089 93.8133 309.923 93.58 310.803 93.58C311.536 93.58 312.143 93.7333 312.623 94.04C313.103 94.3333 313.436 94.74 313.623 95.26L313.903 93.72H318.323L316.323 105H311.903L312.183 103.46C311.809 103.98 311.329 104.393 310.743 104.7C310.156 104.993 309.496 105.14 308.763 105.14C307.629 105.14 306.716 104.76 306.023 104C305.329 103.24 304.983 102.187 304.983 100.84C304.983 100.333 305.029 99.84 305.123 99.36ZM312.903 99.36C312.929 99.24 312.943 99.08 312.943 98.88C312.943 98.4267 312.823 98.08 312.583 97.84C312.343 97.5867 312.016 97.46 311.603 97.46C311.123 97.46 310.696 97.6267 310.323 97.96C309.963 98.2933 309.729 98.76 309.623 99.36C309.596 99.48 309.583 99.64 309.583 99.84C309.583 100.293 309.703 100.647 309.943 100.9C310.183 101.14 310.509 101.26 310.923 101.26C311.403 101.26 311.823 101.093 312.183 100.76C312.556 100.427 312.796 99.96 312.903 99.36ZM325.376 90.2L322.756 105H318.316L320.936 90.2H325.376ZM330.702 100.46C330.688 100.513 330.682 100.58 330.682 100.66C330.682 101.033 330.922 101.22 331.402 101.22H332.462L331.782 105H330.102C327.475 105 326.162 103.887 326.162 101.66C326.162 101.26 326.202 100.833 326.282 100.38L326.802 97.42H325.402L326.062 93.72H327.462L327.942 91H332.382L331.902 93.72H333.742L333.082 97.42H331.242L330.702 100.46ZM338.813 105.14C337.813 105.14 336.933 104.947 336.173 104.56C335.413 104.173 334.819 103.627 334.393 102.92C333.966 102.2 333.753 101.367 333.753 100.42C333.753 99.1133 334.059 97.94 334.673 96.9C335.299 95.86 336.153 95.0467 337.233 94.46C338.313 93.8733 339.519 93.58 340.853 93.58C341.853 93.58 342.733 93.78 343.493 94.18C344.253 94.5667 344.846 95.12 345.273 95.84C345.699 96.5467 345.913 97.3733 345.913 98.32C345.913 99.6267 345.606 100.8 344.993 101.84C344.379 102.88 343.533 103.693 342.453 104.28C341.373 104.853 340.159 105.14 338.813 105.14ZM339.493 101.3C340.066 101.3 340.519 101.04 340.853 100.52C341.186 100 341.353 99.42 341.353 98.78C341.353 98.3267 341.239 97.9867 341.013 97.76C340.799 97.5333 340.519 97.42 340.173 97.42C339.599 97.42 339.146 97.68 338.813 98.2C338.479 98.72 338.313 99.3 338.313 99.94C338.313 100.393 338.419 100.733 338.633 100.96C338.846 101.187 339.133 101.3 339.493 101.3ZM352.268 95.8C352.841 95.1467 353.481 94.6267 354.188 94.24C354.908 93.84 355.621 93.64 356.328 93.64L355.508 98.38H354.248C353.408 98.38 352.761 98.5267 352.308 98.82C351.868 99.1133 351.581 99.6333 351.448 100.38L350.628 105H346.188L348.188 93.72H352.628L352.268 95.8ZM360.683 105.14C359.697 105.14 358.817 104.993 358.043 104.7C357.283 104.407 356.683 104 356.243 103.48C355.817 102.947 355.603 102.34 355.603 101.66C355.603 101.407 355.617 101.22 355.643 101.1H359.903C359.89 101.433 359.983 101.68 360.183 101.84C360.397 102 360.683 102.08 361.043 102.08C361.27 102.08 361.463 102.027 361.623 101.92C361.797 101.813 361.883 101.687 361.883 101.54C361.883 101.327 361.75 101.16 361.483 101.04C361.217 100.907 360.777 100.76 360.163 100.6C359.39 100.387 358.743 100.167 358.223 99.94C357.717 99.7133 357.27 99.38 356.883 98.94C356.51 98.4867 356.323 97.9 356.323 97.18C356.323 96.5133 356.523 95.9067 356.923 95.36C357.337 94.8 357.91 94.3667 358.643 94.06C359.39 93.74 360.25 93.58 361.223 93.58C362.29 93.58 363.203 93.76 363.963 94.12C364.737 94.48 365.317 94.9667 365.703 95.58C366.09 96.1933 366.27 96.8733 366.243 97.62H362.303C362.303 97.3133 362.21 97.08 362.023 96.92C361.837 96.7467 361.563 96.66 361.203 96.66C360.977 96.66 360.783 96.7067 360.623 96.8C360.477 96.8933 360.403 97.02 360.403 97.18C360.403 97.38 360.537 97.5467 360.803 97.68C361.07 97.8 361.523 97.96 362.163 98.16C362.95 98.3867 363.597 98.6133 364.103 98.84C364.623 99.0533 365.077 99.38 365.463 99.82C365.85 100.247 366.043 100.793 366.043 101.46C366.043 102.62 365.543 103.527 364.543 104.18C363.557 104.82 362.27 105.14 360.683 105.14Z" fill="black"/>
</svg>
