<svg width="407" height="122" viewBox="0 0 407 122" fill="none" xmlns="http://www.w3.org/2000/svg">
<path d="M93.696 38.032L81.696 106H60.48L66.432 72.208L50.016 106H31.776L27.264 71.92L21.312 106H0L12 38.032H38.112L45.888 78.928L67.68 38.032H93.696ZM166.193 38.032L154.193 106H132.881L137.585 79.504H117.329L112.625 106H91.3125L103.312 38.032H124.625L120.305 62.512H140.561L144.881 38.032H166.193ZM207.461 38.032C214.757 38.032 220.293 39.664 224.069 42.928C227.845 46.192 229.733 50.544 229.733 55.984C229.733 57.584 229.605 59.024 229.349 60.304C228.517 64.912 226.533 68.976 223.397 72.496C220.261 75.952 216.197 78.448 211.205 79.984L221.381 106H197.957L189.413 81.616L185.093 106H163.781L175.781 38.032H207.461ZM191.909 67.408H200.357C202.405 67.408 204.005 66.96 205.157 66.064C206.373 65.104 207.173 63.632 207.557 61.648C207.621 61.328 207.653 60.912 207.653 60.4C207.653 58.992 207.205 57.904 206.309 57.136C205.413 56.304 204.101 55.888 202.373 55.888H193.925L191.909 67.408Z" fill="white"/>
<path d="M321.52 33.84L319.02 48H314.6L315.84 40.96L312.42 48H308.62L307.68 40.9L306.44 48H302L304.5 33.84H309.94L311.56 42.36L316.1 33.84H321.52ZM326.363 48.14C325.363 48.14 324.483 47.9467 323.723 47.56C322.963 47.1733 322.37 46.6267 321.943 45.92C321.517 45.2 321.303 44.3667 321.303 43.42C321.303 42.1133 321.61 40.94 322.223 39.9C322.85 38.86 323.703 38.0467 324.783 37.46C325.863 36.8733 327.07 36.58 328.403 36.58C329.403 36.58 330.283 36.78 331.043 37.18C331.803 37.5667 332.397 38.12 332.823 38.84C333.25 39.5467 333.463 40.3733 333.463 41.32C333.463 42.6267 333.157 43.8 332.543 44.84C331.93 45.88 331.083 46.6933 330.003 47.28C328.923 47.8533 327.71 48.14 326.363 48.14ZM327.043 44.3C327.617 44.3 328.07 44.04 328.403 43.52C328.737 43 328.903 42.42 328.903 41.78C328.903 41.3267 328.79 40.9867 328.563 40.76C328.35 40.5333 328.07 40.42 327.723 40.42C327.15 40.42 326.697 40.68 326.363 41.2C326.03 41.72 325.863 42.3 325.863 42.94C325.863 43.3933 325.97 43.7333 326.183 43.96C326.397 44.1867 326.683 44.3 327.043 44.3ZM338.898 48.14C337.912 48.14 337.032 47.9933 336.258 47.7C335.498 47.4067 334.898 47 334.458 46.48C334.032 45.9467 333.818 45.34 333.818 44.66C333.818 44.4067 333.832 44.22 333.858 44.1H338.118C338.105 44.4333 338.198 44.68 338.398 44.84C338.612 45 338.898 45.08 339.258 45.08C339.485 45.08 339.678 45.0267 339.838 44.92C340.012 44.8133 340.098 44.6867 340.098 44.54C340.098 44.3267 339.965 44.16 339.698 44.04C339.432 43.9067 338.992 43.76 338.378 43.6C337.605 43.3867 336.958 43.1667 336.438 42.94C335.932 42.7133 335.485 42.38 335.098 41.94C334.725 41.4867 334.538 40.9 334.538 40.18C334.538 39.5133 334.738 38.9067 335.138 38.36C335.552 37.8 336.125 37.3667 336.858 37.06C337.605 36.74 338.465 36.58 339.438 36.58C340.505 36.58 341.418 36.76 342.178 37.12C342.952 37.48 343.532 37.9667 343.918 38.58C344.305 39.1933 344.485 39.8733 344.458 40.62H340.518C340.518 40.3133 340.425 40.08 340.238 39.92C340.052 39.7467 339.778 39.66 339.418 39.66C339.192 39.66 338.998 39.7067 338.838 39.8C338.692 39.8933 338.618 40.02 338.618 40.18C338.618 40.38 338.752 40.5467 339.018 40.68C339.285 40.8 339.738 40.96 340.378 41.16C341.165 41.3867 341.812 41.6133 342.318 41.84C342.838 42.0533 343.292 42.38 343.678 42.82C344.065 43.2467 344.258 43.7933 344.258 44.46C344.258 45.62 343.758 46.5267 342.758 47.18C341.772 47.82 340.485 48.14 338.898 48.14ZM359.26 36.72L357.26 48H352.82L353.12 46.3C352.68 46.8333 352.14 47.2667 351.5 47.6C350.86 47.92 350.147 48.08 349.36 48.08C348.267 48.08 347.427 47.7667 346.84 47.14C346.254 46.5 345.96 45.6267 345.96 44.52C345.96 44.12 346 43.7 346.08 43.26L347.24 36.72H351.66L350.6 42.7C350.574 42.9133 350.56 43.06 350.56 43.14C350.56 43.5533 350.674 43.8733 350.9 44.1C351.14 44.3267 351.467 44.44 351.88 44.44C352.36 44.44 352.767 44.2867 353.1 43.98C353.434 43.6733 353.654 43.2533 353.76 42.72L354.82 36.72H359.26ZM369.166 36.64C370.259 36.64 371.099 36.96 371.686 37.6C372.272 38.2267 372.566 39.0933 372.566 40.2C372.566 40.6 372.526 41.02 372.446 41.46L371.286 48H366.866L367.926 42.02C367.952 41.8067 367.966 41.66 367.966 41.58C367.966 41.1667 367.846 40.8467 367.606 40.62C367.379 40.3933 367.059 40.28 366.646 40.28C366.166 40.28 365.759 40.4333 365.426 40.74C365.092 41.0467 364.872 41.4667 364.766 42L363.706 48H359.266L361.266 36.72H365.706L365.406 38.42C365.846 37.8867 366.386 37.46 367.026 37.14C367.666 36.8067 368.379 36.64 369.166 36.64ZM317.6 63.84L315.1 78H310.66L311.64 72.48H307.42L306.44 78H302L304.5 63.84H308.94L308.04 68.94H312.26L313.16 63.84H317.6ZM322.438 78.14C321.438 78.14 320.558 77.9467 319.798 77.56C319.038 77.1733 318.444 76.6267 318.018 75.92C317.591 75.2 317.378 74.3667 317.378 73.42C317.378 72.1133 317.684 70.94 318.298 69.9C318.924 68.86 319.778 68.0467 320.858 67.46C321.938 66.8733 323.144 66.58 324.478 66.58C325.478 66.58 326.358 66.78 327.118 67.18C327.878 67.5667 328.471 68.12 328.898 68.84C329.324 69.5467 329.538 70.3733 329.538 71.32C329.538 72.6267 329.231 73.8 328.618 74.84C328.004 75.88 327.158 76.6933 326.078 77.28C324.998 77.8533 323.784 78.14 322.438 78.14ZM323.118 74.3C323.691 74.3 324.144 74.04 324.478 73.52C324.811 73 324.978 72.42 324.978 71.78C324.978 71.3267 324.864 70.9867 324.638 70.76C324.424 70.5333 324.144 70.42 323.798 70.42C323.224 70.42 322.771 70.68 322.438 71.2C322.104 71.72 321.938 72.3 321.938 72.94C321.938 73.3933 322.044 73.7333 322.258 73.96C322.471 74.1867 322.758 74.3 323.118 74.3ZM346.873 66.64C348.099 66.64 349.039 66.96 349.693 67.6C350.359 68.24 350.693 69.1267 350.693 70.26C350.693 70.6333 350.653 71.0333 350.573 71.46L349.413 78H344.993L346.053 72.02C346.066 71.94 346.073 71.8267 346.073 71.68C346.073 71.2933 345.953 71 345.713 70.8C345.486 70.5867 345.166 70.48 344.753 70.48C344.273 70.48 343.866 70.6133 343.533 70.88C343.213 71.1333 343.006 71.4867 342.913 71.94L341.833 78H337.413L338.473 72.02C338.486 71.94 338.493 71.8267 338.493 71.68C338.493 71.2933 338.373 71 338.133 70.8C337.906 70.5867 337.586 70.48 337.173 70.48C336.693 70.48 336.286 70.6133 335.953 70.88C335.633 71.1467 335.426 71.5067 335.333 71.96L334.253 78H329.812L331.813 66.72H336.253L335.973 68.24C336.386 67.76 336.893 67.3733 337.493 67.08C338.093 66.7867 338.766 66.64 339.513 66.64C340.326 66.64 341.013 66.82 341.572 67.18C342.146 67.5267 342.559 68.0267 342.813 68.68C343.333 68.08 343.939 67.5933 344.633 67.22C345.339 66.8333 346.086 66.64 346.873 66.64ZM358.516 66.58C360.009 66.58 361.196 66.98 362.076 67.78C362.956 68.5667 363.396 69.6467 363.396 71.02C363.396 71.4067 363.356 71.82 363.276 72.26C363.183 72.7 363.109 72.9933 363.056 73.14H355.936C355.923 73.22 355.916 73.3333 355.916 73.48C355.916 74.2267 356.236 74.6 356.876 74.6C357.369 74.6 357.756 74.38 358.036 73.94H362.736C362.443 74.74 361.983 75.46 361.356 76.1C360.729 76.7267 359.989 77.2267 359.136 77.6C358.296 77.96 357.409 78.14 356.476 78.14C354.983 78.14 353.796 77.7467 352.916 76.96C352.049 76.16 351.616 75.0533 351.616 73.64C351.616 73.2267 351.656 72.8 351.736 72.36C351.949 71.1867 352.376 70.1667 353.016 69.3C353.656 68.42 354.449 67.7467 355.396 67.28C356.356 66.8133 357.396 66.58 358.516 66.58ZM358.936 71.32C358.949 71.2533 358.956 71.1533 358.956 71.02C358.956 70.7 358.856 70.46 358.656 70.3C358.456 70.14 358.203 70.06 357.896 70.06C357.096 70.06 356.556 70.48 356.276 71.32H358.936ZM368.82 78.14C367.833 78.14 366.953 77.9933 366.18 77.7C365.42 77.4067 364.82 77 364.38 76.48C363.953 75.9467 363.74 75.34 363.74 74.66C363.74 74.4067 363.753 74.22 363.78 74.1H368.04C368.027 74.4333 368.12 74.68 368.32 74.84C368.533 75 368.82 75.08 369.18 75.08C369.407 75.08 369.6 75.0267 369.76 74.92C369.933 74.8133 370.02 74.6867 370.02 74.54C370.02 74.3267 369.887 74.16 369.62 74.04C369.353 73.9067 368.913 73.76 368.3 73.6C367.527 73.3867 366.88 73.1667 366.36 72.94C365.853 72.7133 365.407 72.38 365.02 71.94C364.647 71.4867 364.46 70.9 364.46 70.18C364.46 69.5133 364.66 68.9067 365.06 68.36C365.473 67.8 366.047 67.3667 366.78 67.06C367.527 66.74 368.387 66.58 369.36 66.58C370.427 66.58 371.34 66.76 372.1 67.12C372.873 67.48 373.453 67.9667 373.84 68.58C374.227 69.1933 374.407 69.8733 374.38 70.62H370.44C370.44 70.3133 370.347 70.08 370.16 69.92C369.973 69.7467 369.7 69.66 369.34 69.66C369.113 69.66 368.92 69.7067 368.76 69.8C368.613 69.8933 368.54 70.02 368.54 70.18C368.54 70.38 368.673 70.5467 368.94 70.68C369.207 70.8 369.66 70.96 370.3 71.16C371.087 71.3867 371.733 71.6133 372.24 71.84C372.76 72.0533 373.213 72.38 373.6 72.82C373.987 73.2467 374.18 73.7933 374.18 74.46C374.18 75.62 373.68 76.5267 372.68 77.18C371.693 77.82 370.407 78.14 368.82 78.14ZM393.961 71.2C393.161 72.6133 392.321 73.8 391.441 74.76L394.221 78H389.341L388.521 77.08C387.134 77.8267 385.594 78.2 383.901 78.2C382.861 78.2 381.954 78.0533 381.181 77.76C380.407 77.4533 379.814 77.0267 379.401 76.48C378.987 75.9333 378.781 75.2933 378.781 74.56C378.781 73.5733 379.094 72.6867 379.721 71.9C380.361 71.1133 381.214 70.4667 382.281 69.96C381.894 69.3467 381.701 68.74 381.701 68.14C381.701 67.2733 381.941 66.5133 382.421 65.86C382.901 65.1933 383.554 64.68 384.381 64.32C385.221 63.96 386.161 63.78 387.201 63.78C388.574 63.78 389.627 64.0733 390.361 64.66C391.094 65.2467 391.461 65.9933 391.461 66.9C391.461 67.0867 391.441 67.2933 391.401 67.52H387.361C387.374 67.48 387.381 67.42 387.381 67.34C387.381 67.1533 387.314 67.0133 387.181 66.92C387.047 66.8133 386.894 66.76 386.721 66.76C386.481 66.76 386.274 66.8333 386.101 66.98C385.927 67.1267 385.841 67.34 385.841 67.62C385.841 68.0467 386.047 68.4933 386.461 68.96L389.141 72.08C389.407 71.68 389.647 71.2733 389.861 70.86L389.941 70.68H394.241L393.961 71.2ZM384.881 74.7C385.307 74.7 385.754 74.6333 386.221 74.5L384.241 72.28C383.961 72.48 383.741 72.7067 383.581 72.96C383.421 73.2 383.341 73.4333 383.341 73.66C383.341 73.9533 383.474 74.2 383.741 74.4C384.007 74.6 384.387 74.7 384.881 74.7ZM311.1 93.84C312.62 93.84 313.773 94.18 314.56 94.86C315.347 95.54 315.74 96.4467 315.74 97.58C315.74 97.9133 315.713 98.2133 315.66 98.48C315.487 99.44 315.073 100.287 314.42 101.02C313.767 101.74 312.92 102.26 311.88 102.58L314 108H309.12L307.34 102.92L306.44 108H302L304.5 93.84H311.1ZM307.86 99.96H309.62C310.047 99.96 310.38 99.8667 310.62 99.68C310.873 99.48 311.04 99.1733 311.12 98.76C311.133 98.6933 311.14 98.6067 311.14 98.5C311.14 98.2067 311.047 97.98 310.86 97.82C310.673 97.6467 310.4 97.56 310.04 97.56H308.28L307.86 99.96ZM322.578 96.58C324.072 96.58 325.258 96.98 326.138 97.78C327.018 98.5667 327.458 99.6467 327.458 101.02C327.458 101.407 327.418 101.82 327.338 102.26C327.245 102.7 327.172 102.993 327.118 103.14H319.998C319.985 103.22 319.978 103.333 319.978 103.48C319.978 104.227 320.298 104.6 320.938 104.6C321.432 104.6 321.818 104.38 322.098 103.94H326.798C326.505 104.74 326.045 105.46 325.418 106.1C324.792 106.727 324.052 107.227 323.198 107.6C322.358 107.96 321.472 108.14 320.538 108.14C319.045 108.14 317.858 107.747 316.978 106.96C316.112 106.16 315.678 105.053 315.678 103.64C315.678 103.227 315.718 102.8 315.798 102.36C316.012 101.187 316.438 100.167 317.078 99.3C317.718 98.42 318.512 97.7467 319.458 97.28C320.418 96.8133 321.458 96.58 322.578 96.58ZM322.998 101.32C323.012 101.253 323.018 101.153 323.018 101.02C323.018 100.7 322.918 100.46 322.718 100.3C322.518 100.14 322.265 100.06 321.958 100.06C321.158 100.06 320.618 100.48 320.338 101.32H322.998ZM328.123 102.36C328.336 101.173 328.723 100.147 329.283 99.28C329.843 98.4 330.516 97.7333 331.303 97.28C332.089 96.8133 332.923 96.58 333.803 96.58C334.536 96.58 335.143 96.7333 335.623 97.04C336.103 97.3333 336.436 97.74 336.623 98.26L336.903 96.72H341.323L339.323 108H334.903L335.183 106.46C334.809 106.98 334.329 107.393 333.743 107.7C333.156 107.993 332.496 108.14 331.763 108.14C330.629 108.14 329.716 107.76 329.023 107C328.329 106.24 327.983 105.187 327.983 103.84C327.983 103.333 328.029 102.84 328.123 102.36ZM335.903 102.36C335.929 102.24 335.943 102.08 335.943 101.88C335.943 101.427 335.823 101.08 335.583 100.84C335.343 100.587 335.016 100.46 334.603 100.46C334.123 100.46 333.696 100.627 333.323 100.96C332.963 101.293 332.729 101.76 332.623 102.36C332.596 102.48 332.583 102.64 332.583 102.84C332.583 103.293 332.703 103.647 332.943 103.9C333.183 104.14 333.509 104.26 333.923 104.26C334.403 104.26 334.823 104.093 335.183 103.76C335.556 103.427 335.796 102.96 335.903 102.36ZM348.376 93.2L345.756 108H341.316L343.936 93.2H348.376ZM353.702 103.46C353.688 103.513 353.682 103.58 353.682 103.66C353.682 104.033 353.922 104.22 354.402 104.22H355.462L354.782 108H353.102C350.475 108 349.162 106.887 349.162 104.66C349.162 104.26 349.202 103.833 349.282 103.38L349.802 100.42H348.402L349.062 96.72H350.462L350.942 94H355.382L354.902 96.72H356.742L356.082 100.42H354.242L353.702 103.46ZM361.813 108.14C360.813 108.14 359.933 107.947 359.173 107.56C358.413 107.173 357.819 106.627 357.393 105.92C356.966 105.2 356.753 104.367 356.753 103.42C356.753 102.113 357.059 100.94 357.673 99.9C358.299 98.86 359.153 98.0467 360.233 97.46C361.313 96.8733 362.519 96.58 363.853 96.58C364.853 96.58 365.733 96.78 366.493 97.18C367.253 97.5667 367.846 98.12 368.273 98.84C368.699 99.5467 368.913 100.373 368.913 101.32C368.913 102.627 368.606 103.8 367.993 104.84C367.379 105.88 366.533 106.693 365.453 107.28C364.373 107.853 363.159 108.14 361.813 108.14ZM362.493 104.3C363.066 104.3 363.519 104.04 363.853 103.52C364.186 103 364.353 102.42 364.353 101.78C364.353 101.327 364.239 100.987 364.013 100.76C363.799 100.533 363.519 100.42 363.173 100.42C362.599 100.42 362.146 100.68 361.813 101.2C361.479 101.72 361.313 102.3 361.313 102.94C361.313 103.393 361.419 103.733 361.633 103.96C361.846 104.187 362.133 104.3 362.493 104.3ZM375.268 98.8C375.841 98.1467 376.481 97.6267 377.188 97.24C377.908 96.84 378.621 96.64 379.328 96.64L378.508 101.38H377.248C376.408 101.38 375.761 101.527 375.308 101.82C374.868 102.113 374.581 102.633 374.448 103.38L373.628 108H369.188L371.188 96.72H375.628L375.268 98.8ZM383.683 108.14C382.697 108.14 381.817 107.993 381.043 107.7C380.283 107.407 379.683 107 379.243 106.48C378.817 105.947 378.603 105.34 378.603 104.66C378.603 104.407 378.617 104.22 378.643 104.1H382.903C382.89 104.433 382.983 104.68 383.183 104.84C383.397 105 383.683 105.08 384.043 105.08C384.27 105.08 384.463 105.027 384.623 104.92C384.797 104.813 384.883 104.687 384.883 104.54C384.883 104.327 384.75 104.16 384.483 104.04C384.217 103.907 383.777 103.76 383.163 103.6C382.39 103.387 381.743 103.167 381.223 102.94C380.717 102.713 380.27 102.38 379.883 101.94C379.51 101.487 379.323 100.9 379.323 100.18C379.323 99.5133 379.523 98.9067 379.923 98.36C380.337 97.8 380.91 97.3667 381.643 97.06C382.39 96.74 383.25 96.58 384.223 96.58C385.29 96.58 386.203 96.76 386.963 97.12C387.737 97.48 388.317 97.9667 388.703 98.58C389.09 99.1933 389.27 99.8733 389.243 100.62H385.303C385.303 100.313 385.21 100.08 385.023 99.92C384.837 99.7467 384.563 99.66 384.203 99.66C383.977 99.66 383.783 99.7067 383.623 99.8C383.477 99.8933 383.403 100.02 383.403 100.18C383.403 100.38 383.537 100.547 383.803 100.68C384.07 100.8 384.523 100.96 385.163 101.16C385.95 101.387 386.597 101.613 387.103 101.84C387.623 102.053 388.077 102.38 388.463 102.82C388.85 103.247 389.043 103.793 389.043 104.46C389.043 105.62 388.543 106.527 387.543 107.18C386.557 107.82 385.27 108.14 383.683 108.14Z" fill="white"/>
<path d="M262 29V114" stroke="white" stroke-width="6"/>
</svg>
