<svg width="230" height="68" viewBox="0 0 230 68" fill="none" xmlns="http://www.w3.org/2000/svg">
<path d="M93.696 0.0319996L81.696 68H60.48L66.432 34.208L50.016 68H31.776L27.264 33.92L21.312 68H0L12 0.0319996H38.112L45.888 40.928L67.68 0.0319996H93.696ZM166.193 0.0319996L154.193 68H132.881L137.585 41.504H117.329L112.625 68H91.3125L103.312 0.0319996H124.625L120.305 24.512H140.561L144.881 0.0319996H166.193ZM207.461 0.0319996C214.757 0.0319996 220.293 1.664 224.069 4.928C227.845 8.192 229.733 12.544 229.733 17.984C229.733 19.584 229.605 21.024 229.349 22.304C228.517 26.912 226.533 30.976 223.397 34.496C220.261 37.952 216.197 40.448 211.205 41.984L221.381 68H197.957L189.413 43.616L185.093 68H163.781L175.781 0.0319996H207.461ZM191.909 29.408H200.357C202.405 29.408 204.005 28.96 205.157 28.064C206.373 27.104 207.173 25.632 207.557 23.648C207.621 23.328 207.653 22.912 207.653 22.4C207.653 20.992 207.205 19.904 206.309 19.136C205.413 18.304 204.101 17.888 202.373 17.888H193.925L191.909 29.408Z" fill="black"/>
</svg>
